<svg xmlns="http://www.w3.org/2000/svg" width="600" height="400" viewBox="0 0 600 400" fill="none">
  <path d="M140 320C208 286.4 300 310 388.5 266C477 222 530 120 530 120" stroke="#b3d8ff" stroke-width="40" stroke-linecap="round"/>
  <ellipse cx="308" cy="310" rx="150" ry="10" fill="#DDDDDD" fill-opacity="0.5"/>
  <rect x="195" y="140" width="220" height="150" rx="10" fill="white" stroke="#555555" stroke-width="3"/>
  <rect x="195" y="140" width="220" height="35" rx="10" fill="#2b85e4" stroke="#555555" stroke-width="3"/>
  <circle cx="215" cy="157" r="8" fill="white"/>
  <circle cx="240" cy="157" r="8" fill="white"/>
  <circle cx="265" cy="157" r="8" fill="white"/>
  <rect x="210" y="190" width="190" height="10" rx="5" fill="#EEEEEE"/>
  <rect x="210" y="210" width="190" height="10" rx="5" fill="#EEEEEE"/>
  <rect x="210" y="230" width="190" height="10" rx="5" fill="#EEEEEE"/>
  <rect x="210" y="250" width="120" height="10" rx="5" fill="#EEEEEE"/>
  <rect x="220" y="265" width="80" height="25" rx="5" fill="#2b85e4"/>
  <path d="M252 277.5L258 283.5L272 269.5" stroke="white" stroke-width="3" stroke-linecap="round" stroke-linejoin="round"/>
  <path d="M360 80C360 80 380 88 380 110C380 132 355 140 355 140" stroke="#555555" stroke-width="3" stroke-linecap="round"/>
  <path d="M355 140L355 158" stroke="#555555" stroke-width="3" stroke-linecap="round"/>
  <path d="M360 90H346C344.343 90 343 91.3431 343 93V145C343 149.418 346.582 153 351 153H359C363.418 153 367 149.418 367 145V93C367 91.3431 365.657 90 364 90H360Z" fill="#2b85e4" fill-opacity="0.6" stroke="#555555" stroke-width="3"/>
  <rect x="350" y="97" width="10" height="5" rx="2" fill="white"/>
  <rect x="350" y="107" width="10" height="5" rx="2" fill="white"/>
  <rect x="350" y="117" width="10" height="5" rx="2" fill="white"/>
  <rect x="350" y="127" width="10" height="5" rx="2" fill="white"/>
  <rect x="350" y="137" width="10" height="5" rx="2" fill="white"/>
  <circle cx="355" cy="70" r="25" fill="#2b85e4"/>
  <path d="M345 67C345 67 353 77 365 67" stroke="white" stroke-width="2" stroke-linecap="round"/>
  <circle cx="345" cy="60" r="4" fill="white"/>
  <circle cx="365" cy="60" r="4" fill="white"/>
</svg> 